<mxfile host="app.diagrams.net" modified="2024-02-15T09:51:57.789Z" agent="Mozilla/5.0 (Windows NT 10.0; Win64; x64) AppleWebKit/537.36 (KHTML, like Gecko) Chrome/121.0.0.0 Safari/537.36 Edg/121.0.0.0" etag="tdj9elYKAkE-qVEdv_8x" version="23.1.2" type="device">
  <diagram name="ページ1" id="g8cI2sBLCMndIT9UIBIe">
    <mxGraphModel dx="1330" dy="563" grid="1" gridSize="10" guides="1" tooltips="1" connect="1" arrows="1" fold="1" page="1" pageScale="1" pageWidth="1169" pageHeight="827" math="0" shadow="0">
      <root>
        <mxCell id="0" />
        <mxCell id="1" parent="0" />
        <mxCell id="ZsD3688NO6SlG5bNqprv-15" style="edgeStyle=orthogonalEdgeStyle;rounded=0;orthogonalLoop=1;jettySize=auto;html=1;exitX=1;exitY=0.5;exitDx=0;exitDy=0;entryX=0;entryY=0.5;entryDx=0;entryDy=0;" edge="1" parent="1" source="ZsD3688NO6SlG5bNqprv-2" target="ZsD3688NO6SlG5bNqprv-11">
          <mxGeometry relative="1" as="geometry" />
        </mxCell>
        <mxCell id="ZsD3688NO6SlG5bNqprv-44" style="edgeStyle=orthogonalEdgeStyle;rounded=0;orthogonalLoop=1;jettySize=auto;html=1;exitX=1;exitY=1;exitDx=0;exitDy=0;entryX=0.5;entryY=0;entryDx=0;entryDy=0;" edge="1" parent="1" source="ZsD3688NO6SlG5bNqprv-2" target="ZsD3688NO6SlG5bNqprv-21">
          <mxGeometry relative="1" as="geometry">
            <Array as="points">
              <mxPoint x="160" y="358" />
              <mxPoint x="180" y="358" />
            </Array>
          </mxGeometry>
        </mxCell>
        <mxCell id="ZsD3688NO6SlG5bNqprv-52" style="edgeStyle=orthogonalEdgeStyle;rounded=0;orthogonalLoop=1;jettySize=auto;html=1;exitX=0.5;exitY=1;exitDx=0;exitDy=0;entryX=0.75;entryY=1;entryDx=0;entryDy=0;" edge="1" parent="1" source="ZsD3688NO6SlG5bNqprv-2" target="ZsD3688NO6SlG5bNqprv-27">
          <mxGeometry relative="1" as="geometry">
            <Array as="points">
              <mxPoint x="80" y="510" />
              <mxPoint x="470" y="510" />
            </Array>
          </mxGeometry>
        </mxCell>
        <mxCell id="ZsD3688NO6SlG5bNqprv-2" value="DxLib.h&lt;br&gt;2重OK" style="ellipse;whiteSpace=wrap;html=1;" vertex="1" parent="1">
          <mxGeometry x="20" y="290" width="120" height="80" as="geometry" />
        </mxCell>
        <mxCell id="ZsD3688NO6SlG5bNqprv-9" style="edgeStyle=orthogonalEdgeStyle;rounded=0;orthogonalLoop=1;jettySize=auto;html=1;exitX=1;exitY=0.5;exitDx=0;exitDy=0;entryX=0;entryY=0.5;entryDx=0;entryDy=0;" edge="1" parent="1" source="ZsD3688NO6SlG5bNqprv-3" target="ZsD3688NO6SlG5bNqprv-8">
          <mxGeometry relative="1" as="geometry" />
        </mxCell>
        <mxCell id="ZsD3688NO6SlG5bNqprv-3" value="Windows.h&lt;br&gt;2重OK" style="ellipse;whiteSpace=wrap;html=1;" vertex="1" parent="1">
          <mxGeometry x="20" y="190" width="120" height="80" as="geometry" />
        </mxCell>
        <mxCell id="ZsD3688NO6SlG5bNqprv-18" style="edgeStyle=orthogonalEdgeStyle;rounded=0;orthogonalLoop=1;jettySize=auto;html=1;exitX=0;exitY=0.5;exitDx=0;exitDy=0;entryX=0.5;entryY=0;entryDx=0;entryDy=0;" edge="1" parent="1" source="ZsD3688NO6SlG5bNqprv-7" target="ZsD3688NO6SlG5bNqprv-8">
          <mxGeometry relative="1" as="geometry" />
        </mxCell>
        <mxCell id="ZsD3688NO6SlG5bNqprv-48" style="edgeStyle=orthogonalEdgeStyle;rounded=0;orthogonalLoop=1;jettySize=auto;html=1;exitX=1;exitY=0.5;exitDx=0;exitDy=0;entryX=0.5;entryY=0;entryDx=0;entryDy=0;" edge="1" parent="1" source="ZsD3688NO6SlG5bNqprv-7" target="ZsD3688NO6SlG5bNqprv-27">
          <mxGeometry relative="1" as="geometry" />
        </mxCell>
        <mxCell id="ZsD3688NO6SlG5bNqprv-7" value="Defile.h&lt;br&gt;色々宣言" style="rounded=0;whiteSpace=wrap;html=1;" vertex="1" parent="1">
          <mxGeometry x="290" y="130" width="120" height="60" as="geometry" />
        </mxCell>
        <mxCell id="ZsD3688NO6SlG5bNqprv-14" style="edgeStyle=orthogonalEdgeStyle;rounded=0;orthogonalLoop=1;jettySize=auto;html=1;exitX=0.5;exitY=1;exitDx=0;exitDy=0;entryX=0.5;entryY=0;entryDx=0;entryDy=0;" edge="1" parent="1" source="ZsD3688NO6SlG5bNqprv-8" target="ZsD3688NO6SlG5bNqprv-11">
          <mxGeometry relative="1" as="geometry" />
        </mxCell>
        <mxCell id="ZsD3688NO6SlG5bNqprv-8" value="Dialog.h&lt;br&gt;ダイアログを提供" style="rounded=0;whiteSpace=wrap;html=1;" vertex="1" parent="1">
          <mxGeometry x="200" y="200" width="120" height="60" as="geometry" />
        </mxCell>
        <mxCell id="ZsD3688NO6SlG5bNqprv-51" style="edgeStyle=orthogonalEdgeStyle;rounded=0;orthogonalLoop=1;jettySize=auto;html=1;exitX=1;exitY=0.25;exitDx=0;exitDy=0;entryX=0;entryY=0.75;entryDx=0;entryDy=0;" edge="1" parent="1" source="ZsD3688NO6SlG5bNqprv-11" target="ZsD3688NO6SlG5bNqprv-27">
          <mxGeometry relative="1" as="geometry" />
        </mxCell>
        <mxCell id="ZsD3688NO6SlG5bNqprv-11" value="Initialize.h&lt;br&gt;初期化関数置く" style="rounded=0;whiteSpace=wrap;html=1;" vertex="1" parent="1">
          <mxGeometry x="200" y="300" width="120" height="60" as="geometry" />
        </mxCell>
        <mxCell id="ZsD3688NO6SlG5bNqprv-37" style="edgeStyle=orthogonalEdgeStyle;rounded=0;orthogonalLoop=1;jettySize=auto;html=1;exitX=0;exitY=0.75;exitDx=0;exitDy=0;entryX=0.5;entryY=1;entryDx=0;entryDy=0;" edge="1" parent="1" source="ZsD3688NO6SlG5bNqprv-20" target="ZsD3688NO6SlG5bNqprv-21">
          <mxGeometry relative="1" as="geometry" />
        </mxCell>
        <mxCell id="ZsD3688NO6SlG5bNqprv-38" style="edgeStyle=orthogonalEdgeStyle;rounded=0;orthogonalLoop=1;jettySize=auto;html=1;exitX=1;exitY=0.25;exitDx=0;exitDy=0;entryX=0.5;entryY=1;entryDx=0;entryDy=0;" edge="1" parent="1" source="ZsD3688NO6SlG5bNqprv-20" target="ZsD3688NO6SlG5bNqprv-27">
          <mxGeometry relative="1" as="geometry" />
        </mxCell>
        <mxCell id="ZsD3688NO6SlG5bNqprv-20" value="Vector.h&lt;br&gt;座標の構造体" style="rounded=0;whiteSpace=wrap;html=1;" vertex="1" parent="1">
          <mxGeometry x="250" y="430" width="120" height="60" as="geometry" />
        </mxCell>
        <mxCell id="ZsD3688NO6SlG5bNqprv-36" style="edgeStyle=orthogonalEdgeStyle;rounded=0;orthogonalLoop=1;jettySize=auto;html=1;exitX=1;exitY=0.25;exitDx=0;exitDy=0;entryX=0.25;entryY=1;entryDx=0;entryDy=0;" edge="1" parent="1" source="ZsD3688NO6SlG5bNqprv-21" target="ZsD3688NO6SlG5bNqprv-27">
          <mxGeometry relative="1" as="geometry" />
        </mxCell>
        <mxCell id="ZsD3688NO6SlG5bNqprv-21" value="Sprite.h&lt;br&gt;画像の完全支配" style="rounded=0;whiteSpace=wrap;html=1;" vertex="1" parent="1">
          <mxGeometry x="120" y="390" width="120" height="60" as="geometry" />
        </mxCell>
        <mxCell id="ZsD3688NO6SlG5bNqprv-26" style="edgeStyle=orthogonalEdgeStyle;rounded=0;orthogonalLoop=1;jettySize=auto;html=1;exitX=1;exitY=0.5;exitDx=0;exitDy=0;entryX=0;entryY=0.5;entryDx=0;entryDy=0;" edge="1" parent="1" source="ZsD3688NO6SlG5bNqprv-24" target="ZsD3688NO6SlG5bNqprv-25">
          <mxGeometry relative="1" as="geometry" />
        </mxCell>
        <mxCell id="ZsD3688NO6SlG5bNqprv-24" value="fstream&lt;br&gt;もちろん2重OK" style="ellipse;whiteSpace=wrap;html=1;" vertex="1" parent="1">
          <mxGeometry x="20" y="100" width="120" height="80" as="geometry" />
        </mxCell>
        <mxCell id="ZsD3688NO6SlG5bNqprv-47" style="edgeStyle=orthogonalEdgeStyle;rounded=0;orthogonalLoop=1;jettySize=auto;html=1;exitX=1;exitY=0.5;exitDx=0;exitDy=0;entryX=0.75;entryY=0;entryDx=0;entryDy=0;" edge="1" parent="1" source="ZsD3688NO6SlG5bNqprv-25" target="ZsD3688NO6SlG5bNqprv-27">
          <mxGeometry relative="1" as="geometry" />
        </mxCell>
        <mxCell id="ZsD3688NO6SlG5bNqprv-25" value="Setting.h&lt;br&gt;設定を読込" style="rounded=0;whiteSpace=wrap;html=1;" vertex="1" parent="1">
          <mxGeometry x="260" y="60" width="120" height="60" as="geometry" />
        </mxCell>
        <mxCell id="ZsD3688NO6SlG5bNqprv-27" value="main.cpp&lt;br&gt;メイン" style="rounded=0;whiteSpace=wrap;html=1;" vertex="1" parent="1">
          <mxGeometry x="380" y="270" width="120" height="60" as="geometry" />
        </mxCell>
        <mxCell id="ZsD3688NO6SlG5bNqprv-55" style="edgeStyle=orthogonalEdgeStyle;rounded=0;orthogonalLoop=1;jettySize=auto;html=1;exitX=0;exitY=0.5;exitDx=0;exitDy=0;entryX=1;entryY=0.25;entryDx=0;entryDy=0;" edge="1" parent="1" source="ZsD3688NO6SlG5bNqprv-54" target="ZsD3688NO6SlG5bNqprv-7">
          <mxGeometry relative="1" as="geometry" />
        </mxCell>
        <mxCell id="ZsD3688NO6SlG5bNqprv-56" style="edgeStyle=orthogonalEdgeStyle;rounded=0;orthogonalLoop=1;jettySize=auto;html=1;exitX=0.5;exitY=1;exitDx=0;exitDy=0;entryX=1;entryY=0.5;entryDx=0;entryDy=0;" edge="1" parent="1" source="ZsD3688NO6SlG5bNqprv-54" target="ZsD3688NO6SlG5bNqprv-20">
          <mxGeometry relative="1" as="geometry" />
        </mxCell>
        <mxCell id="ZsD3688NO6SlG5bNqprv-54" value="cmath&lt;br&gt;多分おｋ" style="ellipse;whiteSpace=wrap;html=1;" vertex="1" parent="1">
          <mxGeometry x="480" y="105" width="120" height="80" as="geometry" />
        </mxCell>
      </root>
    </mxGraphModel>
  </diagram>
</mxfile>
